<svg id="Layer_1" data-name="Layer 1" xmlns="http://www.w3.org/2000/svg" viewBox="0 0 400.69 63.4"><defs><style>.cls-1{fill:#0a3d62;}.cls-2{fill:#38f1b9;}</style></defs><path class="cls-1" d="M287.6,258.63a18.28,18.28,0,0,1-6,6.8,16.57,16.57,0,0,1-9.62,2.65,18.31,18.31,0,0,1-7-1.3,16.31,16.31,0,0,1-5.5-3.66,17,17,0,0,1-3.62-5.53,18.31,18.31,0,0,1-1.31-7,18.57,18.57,0,0,1,1.31-7,16.24,16.24,0,0,1,9.12-9.15,18.12,18.12,0,0,1,7-1.31,16.84,16.84,0,0,1,9.59,2.61,15.59,15.59,0,0,1,5.7,6.78l-8,3.35a8.58,8.58,0,0,0-2.92-3.45,7.86,7.86,0,0,0-4.46-1.18,8.22,8.22,0,0,0-3.28.67,8.36,8.36,0,0,0-4.56,4.83,11.63,11.63,0,0,0,0,7.78,8.5,8.5,0,0,0,1.84,3,8.4,8.4,0,0,0,2.72,1.88,8.05,8.05,0,0,0,3.28.67,8.35,8.35,0,0,0,4.66-1.24,8.6,8.6,0,0,0,3.05-3.59Z" transform="translate(-49.31 -218.54)"/><path class="cls-1" d="M308.19,233.08a18.16,18.16,0,0,1,7,1.31,16.24,16.24,0,0,1,9.12,9.15,19.57,19.57,0,0,1,0,14.08,16.44,16.44,0,0,1-3.62,5.53,16.74,16.74,0,0,1-5.5,3.63,19.55,19.55,0,0,1-14,0,16.64,16.64,0,0,1-5.5-3.63,16.44,16.44,0,0,1-3.62-5.53,19.57,19.57,0,0,1,0-14.08,16.24,16.24,0,0,1,9.12-9.15A18.12,18.12,0,0,1,308.19,233.08Zm0,26.89a8.48,8.48,0,0,0,3.25-.64,8.23,8.23,0,0,0,2.78-1.84,8.76,8.76,0,0,0,1.92-3,11.55,11.55,0,0,0,0-7.92,8.76,8.76,0,0,0-1.92-3,8.38,8.38,0,0,0-2.78-1.84,8.67,8.67,0,0,0-6.54,0,8.57,8.57,0,0,0-2.75,1.84,8.89,8.89,0,0,0-1.91,3,11.55,11.55,0,0,0,0,7.92,8.89,8.89,0,0,0,1.91,3,8.43,8.43,0,0,0,6,2.48Z" transform="translate(-49.31 -218.54)"/><path class="cls-1" d="M355.73,263.05h-.53a10,10,0,0,1-3.76,3.56,12.44,12.44,0,0,1-6.3,1.47,14.24,14.24,0,0,1-6-1.3,16.05,16.05,0,0,1-5-3.63,17,17,0,0,1-3.46-5.53,20.15,20.15,0,0,1,0-14.08,17,17,0,0,1,3.46-5.53,15.86,15.86,0,0,1,5-3.62,14.1,14.1,0,0,1,6-1.31,12.44,12.44,0,0,1,6.3,1.47,10,10,0,0,1,3.76,3.56h.53l-.53-4.7V219H364v48h-8.25ZM347,260a8.68,8.68,0,0,0,3.32-.64,8.23,8.23,0,0,0,2.78-1.84,9.31,9.31,0,0,0,1.95-3,11.11,11.11,0,0,0,0-7.92,9.31,9.31,0,0,0-1.95-3,8.38,8.38,0,0,0-2.78-1.84,8.88,8.88,0,0,0-3.32-.64,8.52,8.52,0,0,0-3.32.67,8.81,8.81,0,0,0-2.78,1.88,9.14,9.14,0,0,0-2,2.95,10.59,10.59,0,0,0,0,7.78,9,9,0,0,0,2,3,8.65,8.65,0,0,0,2.78,1.88A8.35,8.35,0,0,0,347,260Z" transform="translate(-49.31 -218.54)"/><path class="cls-1" d="M402.27,259.1a18.37,18.37,0,0,1-6.13,6.5,17,17,0,0,1-9.42,2.48,18.09,18.09,0,0,1-6.94-1.3,16.55,16.55,0,0,1-9.19-9.19,18.31,18.31,0,0,1-1.31-7,18,18,0,0,1,1.27-6.74,17.06,17.06,0,0,1,9-9.35,16.49,16.49,0,0,1,6.87-1.41,17.71,17.71,0,0,1,7,1.31,14.28,14.28,0,0,1,5.17,3.62,15.71,15.71,0,0,1,3.15,5.46,21.23,21.23,0,0,1,1.07,6.84v.81a5.1,5.1,0,0,0-.07.74,4.07,4.07,0,0,0-.06.73H377.93a9.28,9.28,0,0,0,1.11,3.46,8.38,8.38,0,0,0,2.08,2.41,8,8,0,0,0,2.71,1.41,10.65,10.65,0,0,0,3,.43,8.55,8.55,0,0,0,5-1.37,10.17,10.17,0,0,0,3.11-3.45Zm-8-12.74a5.54,5.54,0,0,0-.57-2,6.81,6.81,0,0,0-1.47-2,7.55,7.55,0,0,0-2.42-1.54,8.76,8.76,0,0,0-3.45-.61,8.05,8.05,0,0,0-5,1.61,8.51,8.51,0,0,0-3,4.5Z" transform="translate(-49.31 -218.54)"/><path class="cls-1" d="M49.31,234.15h8.25v4h.53a10,10,0,0,1,3.76-3.56,12.44,12.44,0,0,1,6.3-1.47,14.1,14.1,0,0,1,6,1.31,15.86,15.86,0,0,1,5,3.62,17.19,17.19,0,0,1,3.46,5.53,20.15,20.15,0,0,1,0,14.08,17.19,17.19,0,0,1-3.46,5.53,16.05,16.05,0,0,1-5,3.63,14.24,14.24,0,0,1-6,1.3,12.44,12.44,0,0,1-6.3-1.47,10,10,0,0,1-3.76-3.56h-.53l.53,4.7V281.5H49.31Zm17,25.82a8.35,8.35,0,0,0,3.32-.67,8.65,8.65,0,0,0,2.78-1.88,9,9,0,0,0,2-3,10.59,10.59,0,0,0,0-7.78,9.14,9.14,0,0,0-2-2.95,8.81,8.81,0,0,0-2.78-1.88,8.52,8.52,0,0,0-3.32-.67,8.88,8.88,0,0,0-3.32.64,8.38,8.38,0,0,0-2.78,1.84,9.14,9.14,0,0,0-2,3,11.11,11.11,0,0,0,0,7.92,9.14,9.14,0,0,0,2,3A8.23,8.23,0,0,0,63,259.33,8.68,8.68,0,0,0,66.34,260Z" transform="translate(-49.31 -218.54)"/><path class="cls-1" d="M89.74,267V234.15h8.79V267Z" transform="translate(-49.31 -218.54)"/><path class="cls-1" d="M114.76,250.31l-11.27-16.16h10.4l6,9.12h.47l5.64-9.12h10.73l-11.54,16.16L136.69,267H126.36l-6.17-9.39h-.47l-6,9.39H103.36Z" transform="translate(-49.31 -218.54)"/><path class="cls-1" d="M171.15,259.1a18.37,18.37,0,0,1-6.13,6.5,17,17,0,0,1-9.42,2.48,18.09,18.09,0,0,1-6.94-1.3,16.55,16.55,0,0,1-9.19-9.19,18.31,18.31,0,0,1-1.31-7,18,18,0,0,1,1.28-6.74,17,17,0,0,1,3.55-5.56,17.15,17.15,0,0,1,5.4-3.79,16.49,16.49,0,0,1,6.87-1.41,17.71,17.71,0,0,1,7,1.31,14.28,14.28,0,0,1,5.17,3.62,15.71,15.71,0,0,1,3.15,5.46,21.23,21.23,0,0,1,1.07,6.84v.81a5.1,5.1,0,0,0-.07.74,4.07,4.07,0,0,0-.06.73H146.81a9.28,9.28,0,0,0,1.11,3.46,8.38,8.38,0,0,0,2.08,2.41,8,8,0,0,0,2.71,1.41,10.65,10.65,0,0,0,3,.43,8.55,8.55,0,0,0,5-1.37,10.2,10.2,0,0,0,3.12-3.45Zm-8-12.74a5.54,5.54,0,0,0-.57-2,6.81,6.81,0,0,0-1.47-2,7.62,7.62,0,0,0-2.41-1.54,8.85,8.85,0,0,0-3.46-.61,8.05,8.05,0,0,0-5,1.61,8.51,8.51,0,0,0-3,4.5Z" transform="translate(-49.31 -218.54)"/><path class="cls-1" d="M177.32,267V219h8.79v48Z" transform="translate(-49.31 -218.54)"/><rect class="cls-1" x="33.43" y="4.5" width="8.26" height="8.02"/><polygon class="cls-2" points="385.1 31.72 355.49 0 371.09 0 400.66 31.68 400.61 31.7 400.69 31.73 371.13 63.4 355.53 63.4 385.1 31.72"/><polygon class="cls-2" points="173.64 31.72 203.24 0 187.64 0 158.08 31.68 158.13 31.7 158.04 31.73 187.61 63.4 203.21 63.4 173.64 31.72"/></svg>